<!DOCTYPE svg PUBLIC "-//W3C//DTD SVG 1.1//EN" "http://www.w3.org/Graphics/SVG/1.1/DTD/svg11.dtd">
<!-- Uploaded to: SVG Repo, www.svgrepo.com, Transformed by: SVG Repo Mixer Tools -->
<svg width="800px" height="800px" viewBox="0 0 512 512" xmlns="http://www.w3.org/2000/svg" fill="#000000">
<g id="SVGRepo_bgCarrier" stroke-width="0"/>
<g id="SVGRepo_tracerCarrier" stroke-linecap="round" stroke-linejoin="round"/>
<g id="SVGRepo_iconCarrier">
<title>ionicons-v5-k</title>
<path d="M416,221.25V416a48,48,0,0,1-48,48H144a48,48,0,0,1-48-48V96a48,48,0,0,1,48-48h98.75a32,32,0,0,1,22.62,9.37L406.63,198.63A32,32,0,0,1,416,221.25Z" style="fill:none;stroke:#FFF;stroke-linejoin:round;stroke-width:32px"/>
<path d="M256,56V176a32,32,0,0,0,32,32H408" style="fill:none;stroke:#FFF;stroke-linecap:round;stroke-linejoin:round;stroke-width:32px"/>
<line x1="176" y1="288" x2="336" y2="288" style="fill:none;stroke:#FFF;stroke-linecap:round;stroke-linejoin:round;stroke-width:32px"/>
<line x1="176" y1="368" x2="336" y2="368" style="fill:none;stroke:#FFF;stroke-linecap:round;stroke-linejoin:round;stroke-width:32px"/>
</g>
</svg>